<svg width="32" height="32" viewBox="0 0 32 32" fill="none" xmlns="http://www.w3.org/2000/svg">
<g filter="url(#filter0_i_27_172)">
<path d="M27.0605 11.2446C26.4539 9.98693 25.5832 8.85775 24.4776 7.88464C23.372 6.9207 22.0903 6.15874 20.6619 5.62628C19.1845 5.07546 17.6191 4.80005 16.0048 4.80005C14.3905 4.80005 12.825 5.07546 11.3477 5.62628C9.91923 6.15874 8.63755 6.91152 7.53197 7.88464C6.4264 8.85775 5.55565 9.98693 4.94905 11.2446C4.32289 12.5482 4 13.9437 4 15.3758C4 17.882 4.99794 20.2873 6.82752 22.1968L5.84914 27.2L11.0542 25.0243C12.6098 25.6486 14.2633 25.9607 15.995 25.9607C17.6093 25.9607 19.1748 25.6853 20.6521 25.1345C22.0806 24.602 23.3622 23.8492 24.4678 22.8761C25.5734 21.903 26.4441 20.7738 27.0507 19.5161C27.6769 18.2125 27.9998 16.8171 27.9998 15.385C28.0096 13.9437 27.6867 12.5574 27.0605 11.2446Z" fill="#EEEEEE"/>
</g>
<path d="M20.8772 17.4872C20.3685 17.2485 19.9967 17.1016 19.7326 17.0098C19.5662 16.9548 19.1749 16.7895 19.0379 16.8905C18.6074 17.221 18.1476 18.1574 17.6584 18.3318C16.4452 18.1115 15.32 17.3311 14.4395 16.5325C14.0481 16.1836 13.3241 15.1921 13.1676 14.9259C13.1382 14.6505 13.6666 14.2833 13.784 14.0721C14.3906 13.4295 13.9307 13.0256 13.8525 12.7593C13.7155 12.4839 13.4807 11.9882 13.2752 11.5843C13.0991 11.318 13.0599 10.9233 12.7469 10.7764C11.4163 10.1338 10.6532 11.419 10.3401 12.0892C8.4518 16.358 19.801 24.4826 22.11 18.8826C22.2274 18.3961 22.1785 18.2125 22.0024 17.9921C21.6502 17.7626 21.2392 17.6616 20.8772 17.4872Z" fill="white"/>
<defs>
<filter id="filter0_i_27_172" x="4" y="4.80005" width="24" height="26.4" filterUnits="userSpaceOnUse" color-interpolation-filters="sRGB">
<feFlood flood-opacity="0" result="BackgroundImageFix"/>
<feBlend mode="normal" in="SourceGraphic" in2="BackgroundImageFix" result="shape"/>
<feColorMatrix in="SourceAlpha" type="matrix" values="0 0 0 0 0 0 0 0 0 0 0 0 0 0 0 0 0 0 127 0" result="hardAlpha"/>
<feOffset dy="4"/>
<feGaussianBlur stdDeviation="2"/>
<feComposite in2="hardAlpha" operator="arithmetic" k2="-1" k3="1"/>
<feColorMatrix type="matrix" values="0 0 0 0 0 0 0 0 0 0 0 0 0 0 0 0 0 0 0.25 0"/>
<feBlend mode="normal" in2="shape" result="effect1_innerShadow_27_172"/>
</filter>
</defs>
</svg>
