<svg width="32" height="32" viewBox="0 0 32 32" fill="none" xmlns="http://www.w3.org/2000/svg">
<path d="M23.9885 28H8.0115C5.8037 28 4 26.1963 4 23.9885V8.0115C4 5.8037 5.8037 4 8.0115 4H23.9885C26.1963 4 28 5.8037 28 8.0115V23.9885C28 26.2062 26.2062 28 23.9885 28Z" fill="black"/>
<path d="M16.0049 22.1651C14.3589 22.1651 12.8115 21.5244 11.6484 20.3614C10.4854 19.1983 9.84473 17.6509 9.84473 16.0049C9.84473 14.3589 10.4854 12.8115 11.6484 11.6485C12.8115 10.4854 14.3589 9.84476 16.0049 9.84476C17.6509 9.84476 19.1983 10.4854 20.3614 11.6485C21.5244 12.8115 22.1651 14.3589 22.1651 16.0049C22.1651 17.6509 21.5244 19.1983 20.3614 20.3614C19.1885 21.5244 17.6509 22.1651 16.0049 22.1651ZM16.0049 11.1556C13.3338 11.1556 11.1556 13.324 11.1556 16.0049C11.1556 18.676 13.324 20.8542 16.0049 20.8542C18.6759 20.8542 20.8542 18.6858 20.8542 16.0049C20.8443 13.3339 18.6759 11.1556 16.0049 11.1556Z" fill="#C5C5C5"/>
<path d="M23.3659 9.64233C24.0191 9.64233 24.5487 9.11278 24.5487 8.45955C24.5487 7.80631 24.0191 7.27676 23.3659 7.27676C22.7127 7.27676 22.1831 7.80631 22.1831 8.45955C22.1831 9.11278 22.7127 9.64233 23.3659 9.64233Z" fill="#C5C5C5"/>
</svg>
